<?xml version="1.0" standalone="no"?><svg xmlns="http://www.w3.org/2000/svg" viewBox="0 0 1440 320"><path fill="#0099ff" fill-opacity="1" d="M0,160L7.7,186.7C15.5,213,31,267,46,256C61.9,245,77,171,93,160C108.4,149,124,203,139,224C154.8,245,170,235,186,240C201.3,245,217,267,232,240C247.7,213,263,139,279,112C294.2,85,310,107,325,144C340.6,181,356,235,372,218.7C387.1,203,403,117,418,112C433.5,107,449,181,465,186.7C480,192,495,128,511,101.3C526.5,75,542,85,557,117.3C572.9,149,588,203,604,224C619.4,245,635,235,650,240C665.8,245,681,267,697,229.3C712.3,192,728,96,743,96C758.7,96,774,192,790,218.7C805.2,245,821,203,836,160C851.6,117,867,75,883,58.7C898.1,43,914,53,929,58.7C944.5,64,960,64,975,80C991,96,1006,128,1022,165.3C1037.4,203,1053,245,1068,229.3C1083.9,213,1099,139,1115,90.7C1130.3,43,1146,21,1161,37.3C1176.8,53,1192,107,1208,122.7C1223.2,139,1239,117,1254,138.7C1269.7,160,1285,224,1301,224C1316.1,224,1332,160,1347,154.7C1362.6,149,1378,203,1394,240C1409,277,1425,299,1432,309.3L1440,320L1440,0L1432.3,0C1424.5,0,1409,0,1394,0C1378.1,0,1363,0,1347,0C1331.6,0,1316,0,1301,0C1285.2,0,1270,0,1254,0C1238.7,0,1223,0,1208,0C1192.3,0,1177,0,1161,0C1145.8,0,1130,0,1115,0C1099.4,0,1084,0,1068,0C1052.9,0,1037,0,1022,0C1006.5,0,991,0,975,0C960,0,945,0,929,0C913.5,0,898,0,883,0C867.1,0,852,0,836,0C820.6,0,805,0,790,0C774.2,0,759,0,743,0C727.7,0,712,0,697,0C681.3,0,666,0,650,0C634.8,0,619,0,604,0C588.4,0,573,0,557,0C541.9,0,526,0,511,0C495.5,0,480,0,465,0C449,0,434,0,418,0C402.6,0,387,0,372,0C356.1,0,341,0,325,0C309.7,0,294,0,279,0C263.2,0,248,0,232,0C216.8,0,201,0,186,0C170.3,0,155,0,139,0C123.9,0,108,0,93,0C77.4,0,62,0,46,0C31,0,15,0,8,0L0,0Z"></path></svg>