<svg width="261" height="137" viewBox="0 0 261 137" fill="none" xmlns="http://www.w3.org/2000/svg">
<path d="M50.4318 18.4146H13.2258C4.44658 18.4146 3.91007 11.603 3.91007 11.603C3.91007 11.603 2.73951 3.2038 14.6971 0.570209C26.7523 -2.07569 33.4749 5.34513 33.4749 5.34513C33.4749 5.34513 37.6776 3.00689 43.4247 5.02516C50.066 7.36339 48.611 12.6552 48.611 12.6552C48.611 12.6552 53.3745 11.7014 55.1954 13.9289C56.4554 15.4672 57.4389 18.2793 50.4318 18.4085V18.4146ZM207.531 35.0284H252.256C264.938 35.0284 263.312 22.1189 250.696 22.8204C245.477 23.1096 242.014 23.5587 242.014 23.5587C242.014 23.5587 246.103 10.5754 229.577 5.35743C209.937 -0.845039 201.873 13.369 201.873 13.369C201.873 13.369 191.346 9.41242 181.795 12.7659C170.74 16.6425 173.178 25.4724 173.178 25.4724C173.178 25.4724 165.253 23.8849 162.221 27.5891C160.131 30.1427 158.481 34.8192 170.146 35.0345H207.539L207.531 35.0284ZM-6.78758 137L-56 134.846L-48.8059 60.0967H-14.2581L-6.78758 137Z" fill="#E6F6FA"/>
</svg>
